<svg width="112" height="129" viewBox="0 0 112 129" fill="none" xmlns="http://www.w3.org/2000/svg">
<path fill-rule="evenodd" clip-rule="evenodd" d="M66.2477 17.9663L55.8748 0L45.5019 17.9664C19.5994 22.8291 0 45.5659 0 72.8803C0 103.739 25.0161 128.755 55.875 128.755C86.7339 128.755 111.75 103.739 111.75 72.8803C111.75 45.5658 92.1504 22.8289 66.2477 17.9663Z" fill="black" fill-opacity="0.5"/>
<circle cx="55.5425" cy="72.8364" r="39.5781" fill="#00FFEF"/>
<circle cx="55.5425" cy="72.8364" r="41.7975" stroke="black" stroke-opacity="0.4" stroke-width="4.43867"/>
<circle cx="55.5425" cy="72.8369" r="29.9834" fill="#00FFEF"/>
<circle cx="55.5425" cy="72.8369" r="32.2028" stroke="black" stroke-opacity="0.4" stroke-width="4.43867"/>
<path d="M37.5443 80.4834C36.9951 80.4834 36.4184 80.4422 35.8143 80.3598C35.2238 80.2912 34.6609 80.1813 34.1254 80.0303C33.5899 79.8793 33.1094 79.7008 32.6837 79.4948C32.313 79.3163 32.0522 79.0829 31.9011 78.7946C31.7501 78.4925 31.6952 78.1767 31.7364 77.8472C31.7775 77.5176 31.8943 77.2293 32.0865 76.9822C32.2787 76.7213 32.5327 76.5497 32.8485 76.4673C33.1643 76.3712 33.5213 76.4124 33.9195 76.5909C34.4412 76.838 35.0316 77.0302 35.6907 77.1675C36.3497 77.3048 36.9676 77.3735 37.5443 77.3735C38.4505 77.3735 39.0821 77.2568 39.439 77.0234C39.8098 76.7762 39.9951 76.4741 39.9951 76.1172C39.9951 75.8014 39.8647 75.5473 39.6038 75.3551C39.3567 75.1629 38.9104 74.9981 38.2651 74.8608L35.8554 74.346C34.5373 74.0713 33.5556 73.5908 32.9103 72.9043C32.265 72.2178 31.9423 71.3322 31.9423 70.2475C31.9423 69.5335 32.0865 68.8882 32.3748 68.3115C32.6769 67.7211 33.0957 67.2199 33.6311 66.808C34.1803 66.3961 34.8257 66.0803 35.5671 65.8606C36.3223 65.6272 37.1598 65.5105 38.0797 65.5105C38.7937 65.5105 39.5146 65.5929 40.2423 65.7577C40.9837 65.9087 41.6222 66.1421 42.1576 66.4579C42.4734 66.6227 42.7 66.8492 42.8373 67.1376C42.9746 67.4259 43.0295 67.728 43.0021 68.0438C42.9746 68.3458 42.8648 68.6136 42.6725 68.847C42.494 69.0804 42.2469 69.2383 41.9311 69.3207C41.629 69.3893 41.2652 69.3344 40.8395 69.1559C40.4414 68.9774 39.9883 68.847 39.4802 68.7646C38.9859 68.6685 38.5054 68.6204 38.0386 68.6204C37.5305 68.6204 37.098 68.6822 36.741 68.8058C36.3841 68.9156 36.1095 69.0804 35.9172 69.3001C35.7387 69.5198 35.6495 69.7738 35.6495 70.0621C35.6495 70.3504 35.7662 70.5976 35.9996 70.8035C36.2468 70.9958 36.693 71.1605 37.3383 71.2978L39.7274 71.8127C41.0592 72.101 42.0547 72.5747 42.7137 73.2338C43.3728 73.8929 43.7023 74.751 43.7023 75.8082C43.7023 76.5222 43.5581 77.1675 43.2698 77.7442C42.9815 78.3209 42.5695 78.8152 42.0341 79.2271C41.4986 79.6252 40.8533 79.9342 40.0981 80.1539C39.3429 80.3735 38.4917 80.4834 37.5443 80.4834ZM47.7586 80.4422C47.1544 80.4422 46.6876 80.2774 46.3581 79.9479C46.0286 79.6046 45.8638 79.131 45.8638 78.5268V67.6524C45.8638 67.0346 46.0286 66.5609 46.3581 66.2314C46.7013 65.9018 47.175 65.7371 47.7792 65.7371H52.8456C54.4933 65.7371 55.7633 66.1627 56.6558 67.014C57.562 67.8515 58.0151 69.0117 58.0151 70.4946C58.0151 71.9775 57.562 73.1446 56.6558 73.9958C55.7633 74.8334 54.4933 75.2521 52.8456 75.2521H49.6534V78.5268C49.6534 79.131 49.4955 79.6046 49.1797 79.9479C48.8639 80.2774 48.3902 80.4422 47.7586 80.4422ZM49.6534 72.3482H52.1866C52.9006 72.3482 53.4498 72.1972 53.8342 71.8951C54.2187 71.5793 54.4109 71.1125 54.4109 70.4946C54.4109 69.863 54.2187 69.3962 53.8342 69.0941C53.4498 68.7921 52.9006 68.641 52.1866 68.641H49.6534V72.3482ZM61.9769 80.4422C61.3728 80.4422 60.906 80.2774 60.5764 79.9479C60.2469 79.6046 60.0821 79.1241 60.0821 78.5062V67.4877C60.0821 66.8561 60.2469 66.3755 60.5764 66.046C60.906 65.7165 61.3728 65.5517 61.9769 65.5517C62.5948 65.5517 63.0616 65.7165 63.3774 66.046C63.7069 66.3755 63.8717 66.8561 63.8717 67.4877V78.5062C63.8717 79.1241 63.7138 79.6046 63.398 79.9479C63.0822 80.2774 62.6085 80.4422 61.9769 80.4422ZM68.5697 80.4422C67.993 80.4422 67.5536 80.2912 67.2515 79.9891C66.9495 79.687 66.7984 79.2408 66.7984 78.6504V67.4259C66.7984 66.8218 66.9495 66.3618 67.2515 66.046C67.5536 65.7165 67.9518 65.5517 68.4461 65.5517C68.8855 65.5517 69.2287 65.6341 69.4759 65.7989C69.723 65.9636 69.9976 66.2382 70.2997 66.6227L76.8284 74.7785H76.2517V67.3229C76.2517 66.7462 76.3959 66.3069 76.6843 66.0048C76.9863 65.7027 77.4257 65.5517 78.0024 65.5517C78.579 65.5517 79.0115 65.7027 79.2999 66.0048C79.6019 66.3069 79.753 66.7462 79.753 67.3229V78.7328C79.753 79.2545 79.6157 79.6733 79.3411 79.9891C79.0665 80.2912 78.6957 80.4422 78.2289 80.4422C77.7621 80.4422 77.3914 80.3598 77.1168 80.195C76.8559 80.0166 76.5744 79.742 76.2723 79.3712L69.7436 71.1949H70.3203V78.6504C70.3203 79.2408 70.1692 79.687 69.8672 79.9891C69.5788 80.2912 69.1463 80.4422 68.5697 80.4422Z" fill="#026560"/>
</svg>
