<svg width="283" height="283" viewBox="0 0 283 283" fill="none" xmlns="http://www.w3.org/2000/svg">
<path fill-rule="evenodd" clip-rule="evenodd" d="M152.373 86.7969L142 68.8306L131.627 86.797C105.724 91.6597 86.125 114.396 86.125 141.711C86.125 172.57 111.141 197.586 142 197.586C172.859 197.586 197.875 172.57 197.875 141.711C197.875 114.396 178.275 91.6595 152.373 86.7969Z" fill="black" fill-opacity="0.5"/>
<circle cx="141.578" cy="141.578" r="141.422" fill="#1A1E32"/>
<path d="M265.224 168.342C265.231 166.978 264.685 165.667 263.706 164.695C262.727 163.724 261.394 163.172 260 163.159C260.689 163.156 261.371 163.02 262.007 162.759C262.642 162.498 263.219 162.117 263.704 161.638C264.19 161.159 264.573 160.591 264.834 159.967C265.095 159.343 265.228 158.674 265.224 158C265.221 158.674 265.353 159.343 265.614 159.967C265.875 160.591 266.259 161.159 266.744 161.638C267.229 162.117 267.806 162.498 268.442 162.759C269.077 163.02 269.759 163.156 270.448 163.159C269.054 163.172 267.722 163.724 266.743 164.695C265.763 165.667 265.218 166.978 265.224 168.342Z" fill="#F7D457"/>
<path d="M51.065 228.968C51.0717 227.126 50.3319 225.357 49.0076 224.048C47.6834 222.739 45.8827 221.997 44 221.984C44.9332 221.981 45.8566 221.797 46.7171 221.444C47.5777 221.091 48.3585 220.576 49.0149 219.927C49.6713 219.278 50.1903 218.509 50.5421 217.663C50.8939 216.818 51.0716 215.913 51.065 215C51.0584 216.842 51.7983 218.611 53.1226 219.92C54.4469 221.229 56.2476 221.971 58.1302 221.984C56.2476 221.997 54.4469 222.739 53.1226 224.048C51.7983 225.357 51.0584 227.126 51.065 228.968Z" fill="#F7D457"/>
<path d="M167.51 270C167.515 268.284 166.832 266.637 165.612 265.418C164.392 264.2 162.733 263.51 161 263.5C161.859 263.498 162.709 263.327 163.502 262.999C164.294 262.671 165.013 262.191 165.618 261.587C166.223 260.983 166.701 260.267 167.026 259.48C167.35 258.693 167.515 257.85 167.51 257C167.505 257.849 167.669 258.69 167.992 259.476C168.315 260.262 168.792 260.977 169.395 261.58C169.997 262.184 170.714 262.664 171.504 262.994C172.295 263.323 173.143 263.495 174 263.5C173.143 263.505 172.295 263.677 171.504 264.006C170.714 264.336 169.997 264.816 169.395 265.42C168.792 266.023 168.315 266.738 167.992 267.524C167.669 268.31 167.505 269.151 167.51 270Z" fill="#F7D457" fill-opacity="0.2"/>
<path d="M32.0091 117C32.014 115.414 31.3842 113.891 30.2578 112.765C29.1314 111.638 27.6003 111.001 26 110.991C26.7915 110.989 27.5748 110.832 28.3052 110.529C29.0356 110.227 29.6987 109.785 30.2567 109.229C30.8147 108.672 31.2566 108.013 31.5573 107.287C31.858 106.562 32.0115 105.784 32.0091 105C32.0043 105.784 32.1556 106.56 32.4543 107.286C32.753 108.011 33.1933 108.671 33.7498 109.228C34.3063 109.784 34.9682 110.226 35.6976 110.529C36.4269 110.832 37.2093 110.989 38 110.991C37.2085 110.996 36.4257 111.155 35.6963 111.459C34.9668 111.764 34.305 112.208 33.7487 112.766C33.1924 113.324 32.7524 113.985 32.4539 114.712C32.1555 115.438 32.0043 116.216 32.0091 117Z" fill="#F7D457"/>
<path d="M117.657 256.203C117.657 255.252 117.273 254.34 116.587 253.665C115.902 252.99 114.972 252.608 114 252.601C114.482 252.601 114.96 252.508 115.405 252.327C115.851 252.146 116.255 251.88 116.595 251.545C116.935 251.21 117.204 250.813 117.386 250.376C117.568 249.94 117.66 249.472 117.657 249C117.654 249.472 117.746 249.94 117.928 250.376C118.111 250.813 118.379 251.21 118.719 251.545C119.059 251.88 119.463 252.146 119.909 252.327C120.354 252.508 120.832 252.601 121.314 252.601C120.342 252.608 119.412 252.99 118.727 253.665C118.041 254.34 117.657 255.252 117.657 256.203Z" fill="#F7D457" fill-opacity="0.2"/>
<path d="M214.987 90C214.99 89.3485 214.864 88.7026 214.615 88.0994C214.367 87.4962 214 86.9473 213.537 86.4842C213.074 86.0211 212.523 85.6529 211.916 85.4004C211.31 85.148 210.658 85.0163 210 85.0129C211.332 84.9993 212.604 84.4643 213.539 83.5249C214.473 82.5855 214.994 81.3182 214.987 80C214.983 80.6549 215.11 81.3041 215.361 81.9105C215.611 82.5168 215.979 83.0685 216.444 83.534C216.91 83.9995 217.463 84.3696 218.073 84.6234C218.684 84.8771 219.338 85.0095 220 85.0129C219.339 85.0129 218.685 85.1421 218.075 85.393C217.465 85.644 216.912 86.0117 216.446 86.4752C215.98 86.9386 215.611 87.4886 215.361 88.0935C215.111 88.6984 214.983 89.3463 214.987 90Z" fill="#F7D457"/>
<path opacity="0.4" d="M244.864 194.998L241.836 198.774L250.634 205.349L253.622 201.458L244.864 194.998Z" fill="#79C895"/>
<path opacity="0.2" d="M25.9999 192.998C26.5222 193.017 27.042 192.911 27.5228 192.686C28.0102 192.487 28.4533 192.176 28.8223 191.774C29.2013 191.372 29.4988 190.887 29.6953 190.35C29.899 189.823 30.0027 189.255 29.9999 188.682C29.8351 187.651 29.3436 186.716 28.612 186.043C27.8803 185.369 26.9554 185 25.9999 185C25.0444 185 24.1195 185.369 23.3879 186.043C22.6563 186.716 22.1649 187.651 22.0001 188.682C21.9973 189.255 22.1008 189.823 22.3045 190.35C22.5085 190.883 22.8051 191.366 23.1776 191.774C23.5466 192.176 23.9896 192.487 24.4771 192.686C24.9578 192.911 25.4777 193.017 25.9999 192.998Z" fill="#79C895"/>
<path opacity="0.5" d="M31.6013 158C32.085 158.001 32.5578 157.858 32.9584 157.588C33.3708 157.308 33.697 156.919 33.9009 156.466C34.033 156.001 34.033 155.509 33.9009 155.044C33.807 154.563 33.5708 154.12 33.2224 153.772C32.8751 153.442 32.4457 153.21 31.9782 153.098C31.5098 152.967 31.014 152.967 30.5456 153.098C30.0926 153.289 29.7013 153.6 29.4146 153.996C29.1484 154.41 29.0048 154.89 29 155.381C29.0033 156.025 29.2604 156.643 29.7163 157.102C29.9443 157.38 30.2314 157.605 30.5573 157.761C30.8832 157.916 31.2398 157.998 31.6013 158Z" fill="#79C895"/>
<path d="M248.234 96.1842C248.652 96.1764 249.066 96.0939 249.453 95.9409C249.832 95.7651 250.177 95.5264 250.473 95.2353C250.754 94.9385 250.974 94.5915 251.12 94.2132C251.258 93.8305 251.326 93.4268 251.319 93.0209C251.328 92.6148 251.261 92.2107 251.12 91.8285C250.968 91.4549 250.739 91.1155 250.448 90.8308C250.17 90.5323 249.819 90.3065 249.428 90.1738C249.045 90.0442 248.64 89.9865 248.234 90.0035C247.821 89.9846 247.407 90.0423 247.015 90.1738C246.618 90.3219 246.255 90.5452 245.946 90.8308C245.637 91.1054 245.398 91.4472 245.249 91.8285C245.079 92.2036 244.994 92.6105 245 93.0209C245.01 93.8582 245.348 94.6597 245.946 95.2596C246.246 95.5532 246.603 95.786 246.996 95.9447C247.389 96.1033 247.809 96.1847 248.234 96.1842Z" fill="#E69ADE"/>
<path opacity="0.2" d="M186.503 28.2852L182 34.3686L187.896 38.5297L192.374 32.5192L186.503 28.2852Z" fill="#79C895"/>
<path opacity="0.2" d="M105.736 217.426L108.473 214.725L105.736 212L103 214.725L105.736 217.426Z" fill="#90D3F3"/>
<path d="M209.761 253.426L212.498 250.75L209.761 248L207 250.75L209.761 253.426Z" fill="#90D3F3"/>
<path d="M146.736 36.4264L149.498 33.7497L146.736 31L144 33.7497L146.736 36.4264Z" fill="#90D3F3"/>
<path d="M105.761 26.4265L108.498 23.7254L105.761 21L103 23.7254L105.761 26.4265Z" fill="#90D3F3"/>
<path opacity="0.2" d="M246.433 129L243 132.358L246.433 135.716L249.866 132.358L246.433 129Z" fill="#E69ADE"/>
<path opacity="0.2" d="M77.0524 61L72 65.8832L77.0524 71L82 65.8832L77.0524 61Z" fill="#E69ADE"/>
</svg>
